<svg id="visual" viewBox="0 0 900 600" width="900" height="600" xmlns="http://www.w3.org/2000/svg" xmlns:xlink="http://www.w3.org/1999/xlink" version="1.1"><rect x="0" y="0" width="900" height="600" fill="#001220"></rect><defs><linearGradient id="grad1_0" x1="33.3%" y1="0%" x2="100%" y2="100%"><stop offset="20%" stop-color="#00b5be" stop-opacity="1"></stop><stop offset="80%" stop-color="#00b5be" stop-opacity="1"></stop></linearGradient></defs><defs><linearGradient id="grad1_1" x1="33.3%" y1="0%" x2="100%" y2="100%"><stop offset="20%" stop-color="#00b5be" stop-opacity="1"></stop><stop offset="80%" stop-color="#00798f" stop-opacity="1"></stop></linearGradient></defs><defs><linearGradient id="grad1_2" x1="33.3%" y1="0%" x2="100%" y2="100%"><stop offset="20%" stop-color="#054258" stop-opacity="1"></stop><stop offset="80%" stop-color="#00798f" stop-opacity="1"></stop></linearGradient></defs><defs><linearGradient id="grad1_3" x1="33.3%" y1="0%" x2="100%" y2="100%"><stop offset="20%" stop-color="#054258" stop-opacity="1"></stop><stop offset="80%" stop-color="#001220" stop-opacity="1"></stop></linearGradient></defs><defs><linearGradient id="grad2_0" x1="0%" y1="0%" x2="66.7%" y2="100%"><stop offset="20%" stop-color="#00b5be" stop-opacity="1"></stop><stop offset="80%" stop-color="#00b5be" stop-opacity="1"></stop></linearGradient></defs><defs><linearGradient id="grad2_1" x1="0%" y1="0%" x2="66.7%" y2="100%"><stop offset="20%" stop-color="#00798f" stop-opacity="1"></stop><stop offset="80%" stop-color="#00b5be" stop-opacity="1"></stop></linearGradient></defs><defs><linearGradient id="grad2_2" x1="0%" y1="0%" x2="66.7%" y2="100%"><stop offset="20%" stop-color="#00798f" stop-opacity="1"></stop><stop offset="80%" stop-color="#054258" stop-opacity="1"></stop></linearGradient></defs><defs><linearGradient id="grad2_3" x1="0%" y1="0%" x2="66.7%" y2="100%"><stop offset="20%" stop-color="#001220" stop-opacity="1"></stop><stop offset="80%" stop-color="#054258" stop-opacity="1"></stop></linearGradient></defs><g transform="translate(900, 0)"><path d="M0 486.7C-40.2 490.6 -80.4 494.4 -105.9 464.1C-131.5 433.8 -142.4 369.4 -164 340.6C-185.6 311.7 -217.9 318.5 -248.1 311.2C-278.4 303.9 -306.7 282.6 -322.1 256.9C-337.6 231.2 -340.2 201.1 -368.5 177.5C-396.7 153.9 -450.6 136.8 -474.5 108.3C-498.5 79.8 -492.6 39.9 -486.7 0L0 0Z" fill="#06293b"></path><path d="M0 365.1C-30.1 367.9 -60.3 370.8 -79.4 348C-98.6 325.3 -106.8 277 -123 255.4C-139.2 233.8 -163.4 238.8 -186.1 233.4C-208.8 227.9 -230 211.9 -241.6 192.7C-253.2 173.4 -255.2 150.8 -276.4 133.1C-297.6 115.4 -337.9 102.6 -355.9 81.2C-373.9 59.9 -369.5 29.9 -365.1 0L0 0Z" fill="#005d74"></path><path d="M0 243.4C-20.1 245.3 -40.2 247.2 -53 232C-65.7 216.9 -71.2 184.7 -82 170.3C-92.8 155.9 -108.9 159.2 -124.1 155.6C-139.2 151.9 -153.3 141.3 -161.1 128.4C-168.8 115.6 -170.1 100.5 -184.2 88.7C-198.4 76.9 -225.3 68.4 -237.3 54.2C-249.3 39.9 -246.3 20 -243.4 0L0 0Z" fill="#0096a8"></path><path d="M0 121.7C-10 122.6 -20.1 123.6 -26.5 116C-32.9 108.4 -35.6 92.3 -41 85.1C-46.4 77.9 -54.5 79.6 -62 77.8C-69.6 76 -76.7 70.6 -80.5 64.2C-84.4 57.8 -85.1 50.3 -92.1 44.4C-99.2 38.5 -112.6 34.2 -118.6 27.1C-124.6 20 -123.2 10 -121.7 0L0 0Z" fill="#00b5be"></path></g><g transform="translate(0, 600)"><path d="M0 -486.7C35.5 -466 71 -445.3 95 -416.3C119 -387.3 131.5 -350 165.3 -343.3C199.1 -336.6 254.2 -360.5 275 -344.8C295.8 -329.1 282.3 -273.8 313.5 -250C344.8 -226.3 420.7 -234 438.5 -211.2C456.4 -188.3 416 -134.9 414.3 -94.6C412.7 -54.3 449.7 -27.1 486.7 0L0 0Z" fill="#06293b"></path><path d="M0 -365.1C26.6 -349.5 53.3 -334 71.3 -312.2C89.3 -290.5 98.6 -262.5 124 -257.5C149.3 -252.4 190.6 -270.4 206.2 -258.6C221.8 -246.8 211.7 -205.3 235.1 -187.5C258.6 -169.7 315.6 -175.5 328.9 -158.4C342.3 -141.3 312 -101.2 310.8 -70.9C309.5 -40.7 337.3 -20.4 365.1 0L0 0Z" fill="#005d74"></path><path d="M0 -243.4C17.8 -233 35.5 -222.7 47.5 -208.1C59.5 -193.6 65.8 -175 82.7 -171.6C99.5 -168.3 127.1 -180.2 137.5 -172.4C147.9 -164.5 141.1 -136.9 156.8 -125C172.4 -113.1 210.4 -117 219.3 -105.6C228.2 -94.2 208 -67.4 207.2 -47.3C206.3 -27.1 224.9 -13.6 243.4 0L0 0Z" fill="#0096a8"></path><path d="M0 -121.7C8.9 -116.5 17.8 -111.3 23.8 -104.1C29.8 -96.8 32.9 -87.5 41.3 -85.8C49.8 -84.1 63.5 -90.1 68.7 -86.2C73.9 -82.3 70.6 -68.4 78.4 -62.5C86.2 -56.6 105.2 -58.5 109.6 -52.8C114.1 -47.1 104 -33.7 103.6 -23.6C103.2 -13.6 112.4 -6.8 121.7 0L0 0Z" fill="#00b5be"></path></g></svg>