<svg width="150" height="110" viewBox="0 0 150 110" fill="none" xmlns="http://www.w3.org/2000/svg">
<path d="M73.2786 65V62.8821L78.4525 56.9809H73.3399V54.8014H81.4383V56.9193L76.1825 62.8205H81.5406V65H73.2786Z" fill="#DADCE0"/>
<path d="M57 39.2979V36.1211L64.761 27.2693H57.092V24H69.2396V27.1768L61.3559 36.0286H69.393V39.2979H57Z" fill="#DADCE0"/>
<path d="M83.6725 48.2936V45.6463L90.14 38.2698H83.7492V35.5454H93.8722V38.1927L87.3025 45.5692H94V48.2936H83.6725Z" fill="#DADCE0"/>
<path d="M79 83.0588L79.6552 81.589L85.0951 79.101L81.5235 77.5126L82.1978 76L87.8552 78.5159L87.2 79.9857L81.7029 82.4484L85.4459 84.113L84.7717 85.6256L79 83.0588Z" fill="#DADCE0"/>
</svg>
